# xmcd
#
# Track frame offsets: 
#        150
#        20688
#        38347
#        52936
#        70918
#        87125
#        95547
#        112893
#        124321
#        141078
#        158621
#
# Disc length: 2277 seconds
#
# Revision: 0
# Processed by: cddbd v1.5.1PL0 Copyright (c) Steve Scherf et al.
# Submitted via: ExactAudioCopy v0.95b1
#
DISCID=8308e30b
DTITLE=Lem Pratt - Run My Race
DYEAR=2004
DGENRE=Christian
TTITLE0=Run My Race
TTITLE1=I Know One
TTITLE2=Ain't No More Slave To The Grave
TTITLE3=This Town
TTITLE4=Sinner Blue
TTITLE5=What Do You Hear
TTITLE6=Momma Loved
TTITLE7=I Work For Jesus
TTITLE8=Just Take It One Day At A Time
TTITLE9=Shine Your Light
TTITLE10=Whole Lot Of Praise The Lord
EXTD=
EXTT0=
EXTT1=
EXTT2=
EXTT3=
EXTT4=
EXTT5=
EXTT6=
EXTT7=
EXTT8=
EXTT9=
EXTT10=
PLAYORDER=
